<mxfile host="app.diagrams.net" agent="Mozilla/5.0 (X11; Ubuntu; Linux x86_64; rv:131.0) Gecko/20100101 Firefox/131.0" version="24.7.17">
  <diagram name="PÃ¡gina-1" id="UAzXk1vWCmATqAbV6jn9">
    <mxGraphModel dx="730" dy="483" grid="1" gridSize="10" guides="1" tooltips="1" connect="1" arrows="1" fold="1" page="1" pageScale="1" pageWidth="827" pageHeight="1169" math="0" shadow="0">
      <root>
        <mxCell id="0" />
        <mxCell id="1" parent="0" />
        <mxCell id="bHx04fvIDPsrOCiDx9oq-1" value="Web browser" style="shape=umlActor;verticalLabelPosition=bottom;verticalAlign=top;html=1;outlineConnect=0;" parent="1" vertex="1">
          <mxGeometry x="20" y="250" width="30" height="60" as="geometry" />
        </mxCell>
        <mxCell id="bHx04fvIDPsrOCiDx9oq-6" value="" style="rounded=0;whiteSpace=wrap;html=1;dashed=1;" parent="1" vertex="1">
          <mxGeometry x="160" y="80" width="480" height="260" as="geometry" />
        </mxCell>
        <mxCell id="bHx04fvIDPsrOCiDx9oq-4" value="Nginx" style="rounded=0;whiteSpace=wrap;html=1;" parent="1" vertex="1">
          <mxGeometry x="237" y="250" width="120" height="60" as="geometry" />
        </mxCell>
        <mxCell id="bHx04fvIDPsrOCiDx9oq-5" value="" style="endArrow=none;html=1;rounded=0;exitX=0;exitY=0.5;exitDx=0;exitDy=0;" parent="1" source="bHx04fvIDPsrOCiDx9oq-4" edge="1">
          <mxGeometry width="50" height="50" relative="1" as="geometry">
            <mxPoint x="320" y="290" as="sourcePoint" />
            <mxPoint x="80" y="280" as="targetPoint" />
          </mxGeometry>
        </mxCell>
        <mxCell id="bHx04fvIDPsrOCiDx9oq-7" value="&lt;div&gt;HTTPS&lt;/div&gt;" style="edgeLabel;html=1;align=center;verticalAlign=middle;resizable=0;points=[];" parent="bHx04fvIDPsrOCiDx9oq-5" vertex="1" connectable="0">
          <mxGeometry x="0.4625" y="1" relative="1" as="geometry">
            <mxPoint x="-4" y="-21" as="offset" />
          </mxGeometry>
        </mxCell>
        <mxCell id="bHx04fvIDPsrOCiDx9oq-8" value="VPS" style="text;html=1;align=center;verticalAlign=middle;whiteSpace=wrap;rounded=0;" parent="1" vertex="1">
          <mxGeometry x="160" y="50" width="60" height="30" as="geometry" />
        </mxCell>
        <mxCell id="bHx04fvIDPsrOCiDx9oq-9" value="&lt;div&gt;Docker volume&lt;/div&gt;&lt;div&gt;(Web files: html, css, js, images, video)&lt;br&gt;&lt;/div&gt;" style="rounded=0;whiteSpace=wrap;html=1;" parent="1" vertex="1">
          <mxGeometry x="207" y="110" width="180" height="100" as="geometry" />
        </mxCell>
        <mxCell id="bHx04fvIDPsrOCiDx9oq-10" value="" style="endArrow=classic;html=1;rounded=0;exitX=0.5;exitY=1;exitDx=0;exitDy=0;entryX=0.5;entryY=0;entryDx=0;entryDy=0;" parent="1" source="bHx04fvIDPsrOCiDx9oq-9" target="bHx04fvIDPsrOCiDx9oq-4" edge="1">
          <mxGeometry width="50" height="50" relative="1" as="geometry">
            <mxPoint x="320" y="250" as="sourcePoint" />
            <mxPoint x="370" y="200" as="targetPoint" />
          </mxGeometry>
        </mxCell>
        <mxCell id="bHx04fvIDPsrOCiDx9oq-11" value="Docker container&lt;br&gt;Web files generation:&lt;br&gt;&lt;div&gt;1. Convert md to html&lt;/div&gt;&lt;div&gt;2. Copy all files (html, media, etc) to the docker volume&lt;/div&gt;" style="rounded=0;whiteSpace=wrap;html=1;" parent="1" vertex="1">
          <mxGeometry x="440" y="110" width="160" height="100" as="geometry" />
        </mxCell>
        <mxCell id="bHx04fvIDPsrOCiDx9oq-12" value="" style="endArrow=classic;html=1;rounded=0;entryX=1;entryY=0.5;entryDx=0;entryDy=0;exitX=0;exitY=0.5;exitDx=0;exitDy=0;" parent="1" source="bHx04fvIDPsrOCiDx9oq-11" target="bHx04fvIDPsrOCiDx9oq-9" edge="1">
          <mxGeometry width="50" height="50" relative="1" as="geometry">
            <mxPoint x="320" y="250" as="sourcePoint" />
            <mxPoint x="370" y="200" as="targetPoint" />
          </mxGeometry>
        </mxCell>
        <mxCell id="bHx04fvIDPsrOCiDx9oq-13" value="Folder with files to use in the web page (md, media, etc)" style="rounded=0;whiteSpace=wrap;html=1;" parent="1" vertex="1">
          <mxGeometry x="440" y="250" width="160" height="60" as="geometry" />
        </mxCell>
        <mxCell id="bHx04fvIDPsrOCiDx9oq-14" value="" style="endArrow=classic;html=1;rounded=0;entryX=0.5;entryY=1;entryDx=0;entryDy=0;exitX=0.5;exitY=0;exitDx=0;exitDy=0;" parent="1" source="bHx04fvIDPsrOCiDx9oq-13" target="bHx04fvIDPsrOCiDx9oq-11" edge="1">
          <mxGeometry width="50" height="50" relative="1" as="geometry">
            <mxPoint x="629.2307692307693" y="160" as="sourcePoint" />
            <mxPoint x="560" y="250" as="targetPoint" />
          </mxGeometry>
        </mxCell>
        <mxCell id="bHx04fvIDPsrOCiDx9oq-16" value="" style="endArrow=classic;html=1;rounded=0;exitX=0.5;exitY=0;exitDx=0;exitDy=0;entryX=0.5;entryY=1;entryDx=0;entryDy=0;" parent="1" source="bHx04fvIDPsrOCiDx9oq-22" target="bHx04fvIDPsrOCiDx9oq-13" edge="1">
          <mxGeometry width="50" height="50" relative="1" as="geometry">
            <mxPoint x="578" y="410" as="sourcePoint" />
            <mxPoint x="570" y="340" as="targetPoint" />
          </mxGeometry>
        </mxCell>
        <mxCell id="bHx04fvIDPsrOCiDx9oq-17" value="Manual download" style="edgeLabel;html=1;align=center;verticalAlign=middle;resizable=0;points=[];" parent="bHx04fvIDPsrOCiDx9oq-16" vertex="1" connectable="0">
          <mxGeometry x="-0.4197" y="-2" relative="1" as="geometry">
            <mxPoint x="49" as="offset" />
          </mxGeometry>
        </mxCell>
        <mxCell id="bHx04fvIDPsrOCiDx9oq-19" value="" style="endArrow=classic;html=1;rounded=0;exitX=0.5;exitY=0;exitDx=0;exitDy=0;entryX=0.5;entryY=1;entryDx=0;entryDy=0;" parent="1" source="bHx04fvIDPsrOCiDx9oq-21" target="bHx04fvIDPsrOCiDx9oq-13" edge="1">
          <mxGeometry width="50" height="50" relative="1" as="geometry">
            <mxPoint x="435.25" y="420" as="sourcePoint" />
            <mxPoint x="500" y="370" as="targetPoint" />
          </mxGeometry>
        </mxCell>
        <mxCell id="bHx04fvIDPsrOCiDx9oq-20" value="&lt;div&gt;Script downloads these files&lt;/div&gt;" style="edgeLabel;html=1;align=center;verticalAlign=middle;resizable=0;points=[];" parent="bHx04fvIDPsrOCiDx9oq-19" vertex="1" connectable="0">
          <mxGeometry x="-0.4551" y="2" relative="1" as="geometry">
            <mxPoint x="-90" y="1" as="offset" />
          </mxGeometry>
        </mxCell>
        <mxCell id="bHx04fvIDPsrOCiDx9oq-21" value="Github repository with web content files: md, css, js" style="rounded=0;whiteSpace=wrap;html=1;" parent="1" vertex="1">
          <mxGeometry x="380" y="420" width="120" height="60" as="geometry" />
        </mxCell>
        <mxCell id="bHx04fvIDPsrOCiDx9oq-22" value="Private cloud with media: images, video" style="rounded=0;whiteSpace=wrap;html=1;" parent="1" vertex="1">
          <mxGeometry x="540" y="420" width="120" height="60" as="geometry" />
        </mxCell>
      </root>
    </mxGraphModel>
  </diagram>
</mxfile>
